<svg width="40" height="40" viewBox="0 0 40 40" fill="none" xmlns="http://www.w3.org/2000/svg">
<path d="M22.8002 0.192097C19.5024 -0.259278 16.1443 0.112878 13.0254 1.27535C9.9065 2.43781 7.12397 4.35443 4.92616 6.8541C3.04516 9.02046 1.64953 11.5643 0.833005 14.3146C0.0164816 17.065 -0.202025 19.9583 0.192161 22.8001C1.25216 30.5881 7.10816 37.2141 14.7622 39.2921C16.4684 39.759 18.2292 39.9971 19.9982 40.0001L20.2822 39.9981C21.2933 39.9851 22.2847 39.7168 23.1644 39.2182C24.0441 38.7196 24.7836 38.0069 25.3142 37.1461C25.8465 36.29 26.1538 35.3131 26.2073 34.3064C26.2608 33.2997 26.0588 32.2958 25.6202 31.3881L25.2222 30.5561C24.916 29.958 24.7723 29.29 24.8053 28.619C24.8383 27.9479 25.0469 27.2973 25.4102 26.7321C25.93 25.8877 26.7444 25.2659 27.696 24.987C28.6476 24.7081 29.6687 24.7919 30.5622 25.2221L31.3862 25.6161C32.2102 26.0121 33.0862 26.2141 33.9882 26.2141C35.5667 26.206 37.0794 25.5806 38.2029 24.4717C39.3264 23.3628 39.9715 21.8584 40.0002 20.2801C40.0249 18.4161 39.7873 16.5579 39.2942 14.7601C37.2142 7.1081 30.5882 1.2521 22.8002 0.192097ZM33.1162 22.0101L32.2922 21.6161C28.6362 19.8601 24.1522 21.2201 22.0222 24.6041C20.5462 26.9561 20.3962 29.7561 21.6142 32.2881L22.0122 33.1201C22.1613 33.4223 22.2303 33.7579 22.2124 34.0944C22.1946 34.431 22.0905 34.7573 21.9102 35.0421C21.7344 35.333 21.4869 35.5739 21.1913 35.7416C20.8957 35.9093 20.562 35.9984 20.2222 36.0001H19.9982C18.5827 35.9962 17.1739 35.8059 15.8082 35.4341C9.68216 33.7721 5.00216 28.4761 4.15616 22.2621C3.51416 17.5521 4.86016 13.0161 7.94216 9.4841C9.69564 7.47255 11.9243 5.9314 14.4253 5.00085C16.9263 4.07031 19.6203 3.77992 22.2622 4.1561C28.4762 5.0021 33.7722 9.6841 35.4342 15.8081C35.8302 17.2681 36.0202 18.7561 35.9982 20.2221C35.9742 21.8361 34.3082 22.5881 33.1162 22.0101Z" fill="#2F65E5"/>
<path d="M11.0001 28C12.657 28 14.0001 26.6569 14.0001 25C14.0001 23.3431 12.657 22 11.0001 22C9.34327 22 8.00012 23.3431 8.00012 25C8.00012 26.6569 9.34327 28 11.0001 28Z" fill="#2F65E5"/>
<path d="M11.0001 20C12.657 20 14.0001 18.6569 14.0001 17C14.0001 15.3431 12.657 14 11.0001 14C9.34327 14 8.00012 15.3431 8.00012 17C8.00012 18.6569 9.34327 20 11.0001 20Z" fill="#2F65E5"/>
<path d="M17.0001 14C18.657 14 20.0001 12.6569 20.0001 11C20.0001 9.34315 18.657 8 17.0001 8C15.3433 8 14.0001 9.34315 14.0001 11C14.0001 12.6569 15.3433 14 17.0001 14Z" fill="#2F65E5"/>
<path d="M25.0001 14C26.657 14 28.0001 12.6569 28.0001 11C28.0001 9.34315 26.657 8 25.0001 8C23.3433 8 22.0001 9.34315 22.0001 11C22.0001 12.6569 23.3433 14 25.0001 14Z" fill="#2F65E5"/>
</svg>