<svg width="40" height="36" viewBox="0 0 40 36" fill="none" xmlns="http://www.w3.org/2000/svg">
<path d="M36 0H4C2.93913 0 1.92172 0.421427 1.17157 1.17157C0.421427 1.92172 0 2.93913 0 4V12C0 13.0609 0.421427 14.0783 1.17157 14.8284C1.92172 15.5786 2.93913 16 4 16H36C37.0609 16 38.0783 15.5786 38.8284 14.8284C39.5786 14.0783 40 13.0609 40 12V4C40 2.93913 39.5786 1.92172 38.8284 1.17157C38.0783 0.421427 37.0609 0 36 0ZM4 12V4H36V12H4ZM36 20H4C2.93913 20 1.92172 20.4214 1.17157 21.1716C0.421427 21.9217 0 22.9391 0 24V32C0 33.0609 0.421427 34.0783 1.17157 34.8284C1.92172 35.5786 2.93913 36 4 36H36C37.0609 36 38.0783 35.5786 38.8284 34.8284C39.5786 34.0783 40 33.0609 40 32V24C40 22.9391 39.5786 21.9217 38.8284 21.1716C38.0783 20.4214 37.0609 20 36 20ZM4 32V24H36V32H4Z" fill="#2F65E5"/>
<path d="M30 6H34V10H30V6ZM24 6H28V10H24V6ZM30 26H34V30H30V26ZM24 26H28V30H24V26Z" fill="#2F65E5"/>
</svg>