<svg width="24" height="25" viewBox="0 0 24 25" fill="none" xmlns="http://www.w3.org/2000/svg">
<path fill-rule="evenodd" clip-rule="evenodd" d="M2 0.32373C0.895427 0.32373 0 1.21916 0 2.32373V22.3237C0 23.4283 0.895427 24.3237 2 24.3237H22C23.1045 24.3237 24 23.4283 24 22.3237V2.32373C24 1.21916 23.1045 0.32373 22 0.32373H2ZM7.36101 5.66069C7.36852 6.93569 6.41415 7.72132 5.28164 7.71569C4.21476 7.71006 3.28476 6.86069 3.29039 5.66257C3.29601 4.53569 4.18664 3.63006 5.34352 3.65632C6.51727 3.68257 7.36852 4.5432 7.36101 5.66069ZM12.3729 9.33941H9.01295H9.01107V20.7525H12.5623V20.4863C12.5623 19.9797 12.5619 19.4731 12.5615 18.9663C12.5604 17.6145 12.5592 16.2613 12.5661 14.91C12.568 14.5819 12.5829 14.2407 12.6673 13.9275C12.9841 12.7575 14.0361 12.0019 15.2099 12.1876C15.9636 12.3056 16.4623 12.7425 16.6723 13.4532C16.8017 13.8975 16.8599 14.3756 16.8655 14.8388C16.8807 16.2356 16.8785 17.6324 16.8764 19.0293C16.8756 19.5224 16.8748 20.0157 16.8748 20.5088V20.7507H20.4373V20.4769C20.4373 19.8743 20.4371 19.2717 20.4367 18.6692C20.436 17.1632 20.4352 15.6572 20.4392 14.1507C20.4411 13.47 20.368 12.7988 20.2011 12.1407C19.9517 11.1619 19.4361 10.3519 18.598 9.76693C18.0036 9.35065 17.3511 9.08253 16.6217 9.05253C16.5387 9.04908 16.4549 9.04456 16.3708 9.04001C15.9979 9.01985 15.6188 8.99937 15.2623 9.07128C14.2423 9.27565 13.3461 9.74253 12.6692 10.5656C12.5905 10.66 12.5136 10.7559 12.3988 10.8989L12.3729 10.9313V9.33941ZM3.57552 20.7563H7.10989V9.34684H3.57552V20.7563Z" fill="#2f65e5"/>
</svg>
