<?xml version="1.0" standalone="no"?>
<!DOCTYPE svg PUBLIC "-//W3C//DTD SVG 20010904//EN"
 "http://www.w3.org/TR/2001/REC-SVG-20010904/DTD/svg10.dtd">
<svg version="1.0" xmlns="http://www.w3.org/2000/svg"
 width="276.000000pt" height="276.000000pt" viewBox="0 0 276.000000 276.000000"
 preserveAspectRatio="xMidYMid meet">
<metadata>
Created by potrace 1.14, written by Peter Selinger 2001-2017
</metadata>
<g transform="translate(0.000000,276.000000) scale(0.100000,-0.100000)"
fill="#000000" stroke="none">
<path d="M472 1388 l3 -593 400 0 c353 0 407 2 457 18 53 16 59 16 120 0 55
-15 114 -18 453 -18 l390 0 3 593 2 593 -407 -3 c-351 -4 -415 -7 -460 -21
-48 -16 -55 -16 -110 0 -49 14 -119 17 -456 21 l-397 3 2 -593z m543 251 c-34
-66 -65 -188 -65 -254 0 -67 33 -196 65 -253 14 -24 25 -46 25 -48 0 -2 -56
-4 -125 -4 l-125 0 0 305 0 305 125 0 125 0 -25 -51z m965 -254 l0 -305 -125
0 c-69 0 -125 2 -125 4 0 2 11 24 25 48 32 57 65 186 65 253 0 67 -33 196 -65
253 -14 24 -25 46 -25 48 0 2 56 4 125 4 l125 0 0 -305z m-509 111 c42 -96 24
-212 -45 -293 -34 -40 -45 -41 -78 -5 -97 103 -96 264 2 376 l33 37 33 -32
c18 -17 43 -55 55 -83z"/>
</g>
</svg>
